<?xml version="1.0" encoding="utf-8"?>
<!-- Generator: Adobe Illustrator 22.1.0, SVG Export Plug-In . SVG Version: 6.00 Build 0)  -->
<svg version="1.1" xmlns="http://www.w3.org/2000/svg" xmlns:xlink="http://www.w3.org/1999/xlink" x="0px" y="0px"
	 viewBox="0 0 841.9 595.3" style="enable-background:new 0 0 841.9 595.3;" xml:space="preserve">
<style type="text/css">
	.st0{display:none;}
	.st1{display:inline;}
	.st2{fill:#6CC9CB;}
	.st3{fill:#3554A5;}
	.st4{fill:#31469D;}
	.st5{display:inline;fill:#6CC9CB;}
	.st6{display:inline;fill:none;}
	.st7{display:inline;fill:#31469D;}
	.st8{display:inline;fill:#3554A5;}
	.st9{display:inline;fill:#089948;}
	.st10{clip-path:url(#SVGID_2_);fill:#6CC9CB;}
	.st11{clip-path:url(#SVGID_2_);fill:#089948;}
	.st12{clip-path:url(#SVGID_4_);fill:#6CC9CB;}
	.st13{clip-path:url(#SVGID_4_);fill:#089948;}
	.st14{clip-path:url(#SVGID_6_);fill:#6CC9CB;}
	.st15{clip-path:url(#SVGID_6_);fill:#089948;}
	.st16{clip-path:url(#SVGID_8_);fill:#6CC9CB;}
	.st17{clip-path:url(#SVGID_8_);fill:#089948;}
	.st18{clip-path:url(#SVGID_10_);fill:#6CC9CB;}
	.st19{clip-path:url(#SVGID_10_);fill:#089948;}
	.st20{clip-path:url(#SVGID_12_);fill:#6CC9CB;}
	.st21{clip-path:url(#SVGID_12_);fill:#089948;}
	.st22{clip-path:url(#SVGID_14_);fill:#6CC9CB;}
	.st23{clip-path:url(#SVGID_14_);fill:#089948;}
	.st24{clip-path:url(#SVGID_16_);fill:#6CC9CB;}
	.st25{clip-path:url(#SVGID_16_);fill:#089948;}
</style>
<g id="Base" class="st0">
	<g id="Layer_2" class="st1">
		<path class="st2" d="M598.9,318.3c0-18.8,9.9-35.3,24.7-44.5c-16.8-72.4-73.8-129.4-146.3-146.2h0c-9.3,14.6-25.7,24.3-44.3,24.3
			s-35-9.7-44.3-24.3h0c-72.4,16.8-129.4,73.7-146.2,146.1c14.9,9.3,24.8,25.8,24.8,44.6c0,18.8-9.9,35.3-24.8,44.5
			c16.9,72.2,73.7,129,145.9,145.8c9.3-14.9,25.7-24.7,44.5-24.7s35.3,9.9,44.5,24.7c72.2-16.8,129.1-73.7,145.9-145.9
			C608.8,353.5,598.9,337.1,598.9,318.3z M433.4,448.7c-72,0-130.4-58.4-130.4-130.4c0-72,58.4-130.4,130.4-130.4
			c72,0,130.4,58.4,130.4,130.4C563.8,390.3,505.4,448.7,433.4,448.7z"/>
		<path class="st3" d="M563.8,318.2c0,72-58.4,130.4-130.4,130.4c-72,0-130.4-58.4-130.4-130.4c0-72,58.4-130.4,130.4-130.4
			C505.4,187.8,563.8,246.1,563.8,318.2z"/>
	</g>
	<g id="Layer_13" class="st1">
		<circle id="jarak" class="st4" cx="433.1" cy="169.7" r="17.7"/>
	</g>
	<g id="Layer_3" class="st1">
		<circle id="jarak_1_" class="st4" cx="512.9" cy="318.1" r="17.7"/>
		<path class="st3" d="M560.6,318c0,15.3-1.8,30.3-5.1,44.6c-14.8-9.3-24.6-25.7-24.6-44.5c0-18.8,9.9-35.3,24.7-44.5
			C558.8,287.9,560.6,302.7,560.6,318z"/>
		<path class="st3" d="M635.7,318.1c0,29-23.5,52.4-52.4,52.4c-10.2,0-19.7-2.9-27.8-8c3.4-14.3,5.1-29.3,5.1-44.6
			c0-15.3-1.8-30.1-5.1-44.4c8-5,17.5-7.9,27.7-7.9C612.2,265.7,635.7,289.2,635.7,318.1z"/>
	</g>
	<g id="Layer_4" class="st1">
		<circle id="jarak_2_" class="st4" cx="217.2" cy="318" r="17.7"/>
		<path class="st3" d="M199.3,318.1c0,18.8-9.9,35.3-24.8,44.5c-3.4-14.4-5.1-29.3-5.1-44.7c0-15.3,1.8-30.2,5.1-44.4
			C189.4,282.8,199.3,299.3,199.3,318.1z"/>
		<path class="st3" d="M174.5,362.7c-8,5-17.5,7.9-27.7,7.9c-29,0-52.4-23.5-52.4-52.4c0-29,23.5-52.4,52.4-52.4
			c10.2,0,19.6,2.9,27.6,7.9c-3.3,14.3-5.1,29.1-5.1,44.4C169.4,333.4,171.2,348.3,174.5,362.7z"/>
	</g>
</g>
<g id="Garis" class="st0">
</g>
<g id="Remake" class="st0">
	<path class="st5" d="M596.5,268.5c0-17.7,8.7-33.3,22.1-42.8C602.4,154.4,546.2,98.3,474.9,82c-9.5,13.4-25.1,22.1-42.8,22.1
		c-17.7,0-33.3-8.7-42.8-22.1c-71.5,16.3-127.7,72.7-143.9,144.3c13.5,9.5,22.3,25.1,22.3,42.9c0,17.6-8.7,33.2-22,42.7
		c16.5,71.1,72.5,127,143.6,143.2c9.5-13.4,25.1-22.1,42.8-22.1c17.7,0,33.3,8.7,42.8,22.1c71.3-16.3,127.5-72.4,143.7-143.8
		C605.3,301.8,596.5,286.2,596.5,268.5z M432.1,398.9c-72,0-130.4-58.4-130.4-130.4c0-72,58.4-130.4,130.4-130.4
		c72,0,130.4,58.4,130.4,130.4C562.5,340.5,504.1,398.9,432.1,398.9z"/>
	<g id="Layer_8">
		<path class="st6" d="M562.5,268.5c0,72-58.4,130.4-130.4,130.4c-72,0-130.4-58.4-130.4-130.4c0-72,58.4-130.4,130.4-130.4
			C504.1,138.1,562.5,196.5,562.5,268.5z"/>
		<circle id="jarak_3_" class="st7" cx="432.1" cy="121.1" r="17"/>
		<path class="st6" d="M474.9,82c-9.5,13.4-25.1,22.1-42.8,22.1c-17.7,0-33.3-8.7-42.8-22.1c13.8-3.1,28.1-4.8,42.8-4.8
			S461.2,78.8,474.9,82z"/>
		<path class="st8" d="M484.6,51.6c0,11.3-3.6,21.8-9.7,30.3c-13.8-3.1-28.1-4.8-42.8-4.8s-29,1.7-42.8,4.8
			c-6.1-8.6-9.7-19-9.7-30.3c0-29,23.5-52.4,52.4-52.4C461.1-0.8,484.6,22.7,484.6,51.6z"/>
		<circle id="jarak_4_" class="st7" cx="432.1" cy="415.9" r="17"/>
		<path class="st6" d="M474.9,455c-13.8,3.2-28.1,4.8-42.8,4.8s-29-1.7-42.8-4.8c9.5-13.4,25.1-22.1,42.8-22.1
			C449.8,432.9,465.4,441.6,474.9,455z"/>
		<path class="st8" d="M484.6,485.3c0,29-23.5,52.4-52.5,52.4c-29,0-52.4-23.5-52.4-52.4c0-11.3,3.6-21.8,9.7-30.3
			c13.8,3.2,28.1,4.8,42.8,4.8s29-1.7,42.8-4.8C481,463.6,484.6,474,484.6,485.3z"/>
		<circle id="jarak_5_" class="st7" cx="579.5" cy="268.5" r="17"/>
		<path class="st6" d="M623.5,268.5c0,14.7-1.7,29-4.8,42.8c-13.4-9.5-22.1-25.1-22.1-42.8c0-17.7,8.7-33.3,22.1-42.8
			C621.8,239.5,623.5,253.8,623.5,268.5z"/>
		<path class="st8" d="M701.4,268.5c0,29-23.5,52.4-52.4,52.4c-11.3,0-21.8-3.6-30.3-9.7c3.1-13.8,4.8-28.1,4.8-42.8
			c0-14.7-1.7-29-4.8-42.8c8.6-6.1,19-9.7,30.3-9.7C677.9,216.1,701.4,239.5,701.4,268.5z"/>
		<circle id="jarak_6_" class="st7" cx="284.7" cy="268.5" r="17"/>
		<path class="st6" d="M267.7,269.1c0,17.6-8.7,33.2-22,42.7c-3.2-13.9-4.9-28.4-4.9-43.3c0-14.5,1.6-28.7,4.7-42.3
			C258.9,235.7,267.7,251.4,267.7,269.1z"/>
		<path class="st8" d="M245.7,311.8c-8.6,6.1-19.1,9.7-30.4,9.7c-29,0-52.4-23.5-52.4-52.4c0-29,23.5-52.4,52.4-52.4
			c11.3,0,21.7,3.5,30.2,9.6c-3.1,13.6-4.7,27.7-4.7,42.3C240.8,283.4,242.5,297.9,245.7,311.8z"/>
	</g>
	<circle class="st3" cx="432.1" cy="96.8" r="7.1"/>
	<circle class="st3" cx="603.6" cy="268.5" r="7.1"/>
	<circle class="st3" cx="432.1" cy="440" r="7.1"/>
	<circle class="st3" cx="260.6" cy="268.5" r="7.1"/>
	<circle class="st9" cx="432.1" cy="51.4" r="38.3"/>
	<circle class="st9" cx="432.1" cy="485.4" r="38.3"/>
	<circle class="st9" cx="649" cy="268.5" r="38.3"/>
	<circle class="st9" cx="215.3" cy="268.5" r="38.3"/>
</g>
<g id="Layer_14">
	<g id="Remake_copy">
		<g>
			<defs>
				<path id="SVGID_1_" d="M534,249.2l-3.8-124.4l-22.9-85.7l-45.9-27.7c0,0-50.2-3.1-54.1-0.6c-3.8,2.5-60.9,7.4-66,9.9
					s-41.1,21.9-46.1,27.1s-35,97-35,97l124.2-3.8l37.3,34.7c0,0,24.9,19.3,27.8,21.8c2.9,2.5,13.7,10.5,19.4,17
					c5.6,6.4,17,18.6,18.9,19.6c1.9,1,42.8,14.6,42.8,14.6"/>
			</defs>
			<clipPath id="SVGID_2_">
				<use xlink:href="#SVGID_1_"  style="overflow:visible;"/>
			</clipPath>
			<path class="st10" d="M567.1,298.3c3.1-17.4,14.4-31.3,29.2-38.3c-3.7-73.1-49.2-138.1-116.6-166.5c-11.7,11.5-28.6,17.4-46,14.4
				c-17.4-3.1-31.3-14.4-38.3-29.2C322.2,82.3,257,128,228.7,195.7c11.6,11.7,17.5,28.6,14.5,46.1c-3.1,17.3-14.3,31.2-29.1,38.2
				c3.9,72.8,49.3,137.6,116.6,166c11.7-11.5,28.6-17.4,46-14.4c17.4,3.1,31.3,14.4,38.3,29.2c73.1-3.7,138.1-49.2,166.5-116.6
				C569.9,332.6,564,315.7,567.1,298.3z M382.5,398.2c-70.9-12.5-118.3-80.1-105.8-151.1c12.5-70.9,80.1-118.3,151.1-105.8
				c70.9,12.5,118.3,80.1,105.8,151.1C521.1,363.3,453.5,410.7,382.5,398.2z"/>
			<circle class="st11" cx="442.9" cy="56" r="38.3"/>
			<circle class="st11" cx="367.5" cy="483.3" r="38.3"/>
			<circle class="st11" cx="618.7" cy="307.4" r="38.3"/>
			<circle class="st11" cx="191.6" cy="232.1" r="38.3"/>
		</g>
	</g>
	<g id="Remake_copy_2">
		<g>
			<defs>
				<path id="SVGID_3_" d="M555,93.8l3.8,124.4L457.9,301l-14.4,48.9l7.3,17.6l124.2-3.8l146.8-29.5c0,0,16.7-75.5,14.2-80.4
					c-2.5-4.8-16.2-42.7-24.9-51c-8.7-8.3-19.7-26.5-37.7-47.3s-51.9-55.2-57.5-61.6S585,88.5,585,88.5L555,93.8z"/>
			</defs>
			<clipPath id="SVGID_4_">
				<use xlink:href="#SVGID_3_"  style="overflow:visible;"/>
			</clipPath>
			<path class="st12" d="M591.9,267.3c3.1-17.4,14.4-31.3,29.2-38.3c-3.7-73.1-49.2-138.1-116.6-166.5c-11.7,11.5-28.6,17.4-46,14.4
				c-17.4-3.1-31.3-14.4-38.3-29.2C347,51.3,281.8,97.1,253.5,164.7c11.6,11.7,17.5,28.6,14.5,46.1c-3.1,17.3-14.3,31.2-29.1,38.2
				c3.9,72.8,49.3,137.6,116.6,166c11.7-11.5,28.6-17.4,46-14.4c17.4,3.1,31.3,14.4,38.3,29.2c73.1-3.7,138.1-49.2,166.5-116.6
				C594.7,301.6,588.8,284.7,591.9,267.3z M407.4,367.2c-70.9-12.5-118.3-80.1-105.8-151.1c12.5-70.9,80.1-118.3,151.1-105.8
				c70.9,12.5,118.3,80.1,105.8,151.1C545.9,332.3,478.3,379.7,407.4,367.2z"/>
			<circle class="st13" cx="467.7" cy="25" r="38.3"/>
			<circle class="st13" cx="392.3" cy="452.3" r="38.3"/>
			<circle class="st13" cx="643.6" cy="276.4" r="38.3"/>
			<circle class="st13" cx="216.4" cy="201.1" r="38.3"/>
		</g>
	</g>
	<g id="Remake_copy_3">
		<g>
			<defs>
				<path id="SVGID_5_" d="M606.2,389.2L482.1,393c0,0-77.7-52-77.5-53.5s-3.9-28.6-3.9-28.6l-34.2-21.8l-33.8-3.6l3.7,123.6
					l-2.1,97.2c0,0,68,40.4,72.9,41.3c4.9,0.9,76.2,11.4,84.6,9.8c8.4-1.6,40.7-11.9,46.3-20.7c5.6-8.8,71.9-48.8,74.6-56.5
					c2.7-7.7,13.8-12.8,19.7-29.1S606.2,389.2,606.2,389.2z"/>
			</defs>
			<clipPath id="SVGID_6_">
				<use xlink:href="#SVGID_5_"  style="overflow:visible;"/>
			</clipPath>
			<path class="st14" d="M623.2,292.8c3.1-17.4,14.4-31.3,29.2-38.3c-3.7-73.1-49.2-138.1-116.6-166.5c-11.7,11.5-28.6,17.4-46,14.4
				c-17.4-3.1-31.3-14.4-38.3-29.2c-73.2,3.7-138.4,49.4-166.7,117.1c11.6,11.7,17.5,28.6,14.5,46.1c-3.1,17.3-14.3,31.2-29.1,38.2
				c3.9,72.8,49.3,137.6,116.6,166c11.7-11.5,28.6-17.4,46-14.4c17.4,3.1,31.3,14.4,38.3,29.2c73.1-3.7,138.1-49.2,166.5-116.6
				C626.1,327.1,620.2,310.2,623.2,292.8z M438.7,392.6c-70.9-12.5-118.3-80.1-105.8-151.1C345.4,170.7,413,123.3,484,135.8
				c70.9,12.5,118.3,80.1,105.8,151.1C577.2,357.8,509.6,405.2,438.7,392.6z"/>
			<circle class="st15" cx="499" cy="50.5" r="38.3"/>
			<circle class="st15" cx="423.7" cy="477.8" r="38.3"/>
			<circle class="st15" cx="674.9" cy="301.9" r="38.3"/>
			<circle class="st15" cx="247.8" cy="226.6" r="38.3"/>
		</g>
	</g>
	<g id="Remake_copy_4">
		<g>
			<defs>
				<path id="SVGID_7_" d="M310.3,441.1l-3.7-123.6l79.3-37.6l35.7-41.1c0,0,0.3-28.4-0.3-36.6c-0.6-8.2,0.3-13.5,0.9-16.8
					c0.6-3.3-7.7-18-7.7-18l-124.2,3.8l-51.5-10c0,0-35.6,10.6-43.1,24.2c-7.5,13.6-42.7,56.1-42.7,56.1s-9.6,43-12.5,59.4
					c-2.9,16.4-4.1,27,1.5,37.5c5.6,10.5,13.4,23.8,28.2,43.5c14.8,19.6,3,6,29.9,33.8s35.5,29.3,40.8,35.7S310.3,441.1,310.3,441.1
					z"/>
			</defs>
			<clipPath id="SVGID_8_">
				<use xlink:href="#SVGID_7_"  style="overflow:visible;"/>
			</clipPath>
			<path class="st16" d="M597.2,324.7c3.1-17.4,14.4-31.3,29.2-38.3c-3.7-73.1-49.2-138.1-116.6-166.5c-11.7,11.5-28.6,17.4-46,14.4
				c-17.4-3.1-31.3-14.4-38.3-29.2c-73.2,3.7-138.4,49.4-166.7,117.1c11.6,11.7,17.5,28.6,14.5,46.1c-3.1,17.3-14.3,31.2-29.1,38.2
				c3.9,72.8,49.3,137.6,116.6,166c11.7-11.5,28.6-17.4,46-14.4c17.4,3.1,31.3,14.4,38.3,29.2c73.1-3.7,138.1-49.2,166.5-116.6
				C600,359,594.1,342.1,597.2,324.7z M412.7,424.6c-70.9-12.5-118.3-80.1-105.8-151.1c12.5-70.9,80.1-118.3,151.1-105.8
				c70.9,12.5,118.3,80.1,105.8,151.1C551.2,389.7,483.6,437.1,412.7,424.6z"/>
			<circle class="st17" cx="473" cy="82.4" r="38.3"/>
			<circle class="st17" cx="397.6" cy="509.7" r="38.3"/>
			<circle class="st17" cx="648.9" cy="333.8" r="38.3"/>
			<circle class="st17" cx="221.7" cy="258.5" r="38.3"/>
		</g>
	</g>
</g>
<g id="Layer_14_copy" class="st0">
	<g id="Remake_copy_5_3_" class="st1">
		<g>
			<defs>
				<path id="SVGID_9_" d="M529.8,322l81.3-94.2l41.1-78.6l-15.1-51.5c0,0-34.9-36.3-39.4-37c-4.5-0.7-49.8-35.7-55.3-37.4
					c-5.5-1.7-45.1-11.7-52.2-11.2s-91.4,47.8-91.4,47.8l94,81.2l4,50.8c0,0,5.3,31,5.7,34.9s3,17,2.8,25.6
					c-0.2,8.5,0,25.2,0.7,27.2c0.7,2,21.7,39.7,21.7,39.7"/>
			</defs>
			<clipPath id="SVGID_10_">
				<use xlink:href="#SVGID_9_"  style="overflow:visible;"/>
			</clipPath>
			<path class="st18" d="M521,380.5c14-10.7,31.7-13.3,47.4-8.4c46.7-56.3,57.2-135,26.7-201.5c-16.4,0.6-32.8-6.5-43.6-20.5
				c-10.7-14-13.3-31.7-8.5-47.4c-56.4-46.8-135.4-57.2-202-26.5c0.7,16.5-6.4,33-20.5,43.7c-14,10.7-31.6,13.3-47.3,8.5
				c-46.4,56.3-56.7,134.7-26.4,201.1c16.4-0.6,32.8,6.5,43.6,20.5c10.7,14,13.3,31.8,8.5,47.4c56.3,46.7,135,57.1,201.5,26.7
				C499.9,407.7,507,391.3,521,380.5z M317.5,329.3c-43.8-57.2-32.9-139,24.2-182.8c57.2-43.8,139-32.9,182.8,24.2
				c43.8,57.2,32.9,139-24.2,182.8C443.2,397.3,361.3,386.5,317.5,329.3z"/>
			<circle class="st19" cx="593.4" cy="118" r="38.3"/>
			<circle class="st19" cx="248.9" cy="381.9" r="38.3"/>
			<circle class="st19" cx="552.9" cy="422.2" r="38.3"/>
			<circle class="st19" cx="289.2" cy="77.8" r="38.3"/>
		</g>
	</g>
	<g id="Remake_copy_5_2_" class="st1">
		<g>
			<defs>
				<path id="SVGID_11_" d="M650.4,221.7l-81.3,94.2l-130.4-7.2L395,335l-6.5,17.9l94,81.2l128.1,77.5c0,0,63.4-44.3,64.8-49.6
					s17-42.4,16.2-54.4c-0.8-12,3.4-32.8,4.2-60.3c0.8-27.5-0.9-75.7-0.7-84.3c0.2-8.5-19.1-24.9-19.1-24.9L650.4,221.7z"/>
			</defs>
			<clipPath id="SVGID_12_">
				<use xlink:href="#SVGID_11_"  style="overflow:visible;"/>
			</clipPath>
			<path class="st20" d="M560.3,374.5c14-10.7,31.7-13.3,47.4-8.4c46.7-56.3,57.2-135,26.7-201.5c-16.4,0.6-32.8-6.5-43.6-20.5
				c-10.7-14-13.3-31.7-8.5-47.4c-56.4-46.8-135.4-57.2-202-26.5c0.7,16.5-6.4,33-20.5,43.7c-14,10.7-31.6,13.3-47.3,8.5
				c-46.4,56.3-56.7,134.7-26.4,201.1c16.4-0.6,32.8,6.5,43.6,20.5c10.7,14,13.3,31.8,8.5,47.4c56.3,46.7,135,57.1,201.5,26.7
				C539.2,401.7,546.2,385.2,560.3,374.5z M356.8,323.2c-43.8-57.2-32.9-139,24.2-182.8c57.2-43.8,139-32.9,182.8,24.2
				c43.8,57.2,32.9,139-24.2,182.8C482.4,391.3,400.6,380.4,356.8,323.2z"/>
			<circle class="st21" cx="632.6" cy="112" r="38.3"/>
			<circle class="st21" cx="288.1" cy="375.8" r="38.3"/>
			<circle class="st21" cx="592.2" cy="416.1" r="38.3"/>
			<circle class="st21" cx="328.4" cy="71.8" r="38.3"/>
		</g>
	</g>
	<g id="Remake_copy_5_1_" class="st1">
		<g>
			<defs>
				<path id="SVGID_13_" d="M488.4,474l-94-81.2c0,0-22.1-90.9-20.9-91.8c1.2-0.9,16.5-23.7,16.5-23.7l-10.5-39.2l-22.5-25.5
					l-80.9,93.5l-67.3,70.2c0,0,22.8,75.8,25.8,79.7s48.4,59.9,55.7,64.4s38,18.8,48.1,16.1c10.1-2.7,86,12.6,93.2,8.8
					c7.2-3.8,18.8-0.1,34.1-8.1C481,529.4,488.4,474,488.4,474z"/>
			</defs>
			<clipPath id="SVGID_14_">
				<use xlink:href="#SVGID_13_"  style="overflow:visible;"/>
			</clipPath>
			<path class="st22" d="M566.1,414.4c14-10.7,31.7-13.3,47.4-8.4c46.7-56.3,57.2-135,26.7-201.5c-16.4,0.6-32.8-6.5-43.6-20.5
				c-10.7-14-13.3-31.7-8.5-47.4c-56.4-46.8-135.4-57.2-202-26.5c0.7,16.5-6.4,33-20.5,43.7c-14,10.7-31.6,13.3-47.3,8.5
				C272,218.5,261.7,297,292,363.4c16.4-0.6,32.8,6.5,43.6,20.5c10.7,14,13.3,31.8,8.5,47.4c56.3,46.7,135,57.1,201.5,26.7
				C545,441.6,552.1,425.2,566.1,414.4z M362.6,363.2c-43.8-57.2-32.9-139,24.2-182.8c57.2-43.8,139-32.9,182.8,24.2
				c43.8,57.2,32.9,139-24.2,182.8C488.3,431.2,406.4,420.4,362.6,363.2z"/>
			<circle class="st23" cx="638.5" cy="151.9" r="38.3"/>
			<circle class="st23" cx="294" cy="415.8" r="38.3"/>
			<circle class="st23" cx="598" cy="456.1" r="38.3"/>
			<circle class="st23" cx="334.3" cy="111.8" r="38.3"/>
		</g>
	</g>
	<g id="Remake_copy_5" class="st1">
		<g>
			<defs>
				<path id="SVGID_15_" d="M235.3,312.1l80.9-93.5l83.9,25.9l54.1-6.1c0,0,19.4-20.7,24.5-27.2c5.1-6.5,9.4-9.7,12-11.7
					s6.5-18.4,6.5-18.4l-94-81.2L372,57.6c0,0-33.5-16.3-48.1-11.3s-69.4,12.4-69.4,12.4S218.3,83.8,205.1,94
					c-13.2,10.1-21.3,17.1-24.2,28.6c-3,11.5-6.2,26.6-8.6,51.1c-2.4,24.5-1.9,6.5-0.8,45.1c1.1,38.7,6.3,45.6,5.9,53.9
					C176.9,280.9,235.3,312.1,235.3,312.1z"/>
			</defs>
			<clipPath id="SVGID_16_">
				<use xlink:href="#SVGID_15_"  style="overflow:visible;"/>
			</clipPath>
			<path class="st24" d="M525.4,420.4c14-10.7,31.7-13.3,47.4-8.4c46.7-56.3,57.2-135,26.7-201.5c-16.4,0.6-32.8-6.5-43.6-20.5
				c-10.7-14-13.3-31.7-8.5-47.4C491,95.6,412.1,85.2,345.4,116c0.7,16.5-6.4,33-20.5,43.7c-14,10.7-31.6,13.3-47.3,8.5
				c-46.4,56.3-56.7,134.7-26.4,201.1c16.4-0.6,32.8,6.5,43.6,20.5c10.7,14,13.3,31.8,8.5,47.4c56.3,46.7,135,57.1,201.5,26.7
				C504.2,447.5,511.3,431.1,525.4,420.4z M321.9,369.1c-43.8-57.2-32.9-139,24.2-182.8c57.2-43.8,139-32.9,182.8,24.2
				c43.8,57.2,32.9,139-24.2,182.8C447.5,437.1,365.7,426.3,321.9,369.1z"/>
			<circle class="st25" cx="597.7" cy="157.8" r="38.3"/>
			<circle class="st25" cx="253.2" cy="421.7" r="38.3"/>
			<circle class="st25" cx="557.2" cy="462" r="38.3"/>
			<circle class="st25" cx="293.5" cy="117.7" r="38.3"/>
		</g>
	</g>
</g>
<g id="Layer_19" class="st0">
</g>
</svg>
