<svg id="Layer_1" data-name="Layer 1" xmlns="http://www.w3.org/2000/svg" viewBox="0 0 510.91 784.31"><defs><style>.cls-1,.cls-11{fill:#13213c;}.cls-10,.cls-12,.cls-13,.cls-2,.cls-6,.cls-7,.cls-8,.cls-9{fill:#faa31b;}.cls-11,.cls-2,.cls-3,.cls-5{fill-rule:evenodd;}.cls-3,.cls-4{fill:#1897d4;}.cls-5{fill:#164989;}.cls-6{font-size:19.55px;}.cls-10,.cls-12,.cls-13,.cls-6,.cls-7,.cls-8,.cls-9{font-family:Impact;}.cls-7{font-size:17.38px;}.cls-8{font-size:17.38px;}.cls-9{font-size:20.83px;}.cls-10{font-size:15.11px;}.cls-12{font-size:164.19px;}.cls-13{font-size:26.66px;}</style></defs><title>logo</title><path class="cls-1" d="M602.42,98.09c32.92,9.25,56.48,17.59,59.49,19.3l8,4.77h0c2,1.32,4.31,2.92,7.08,5,21,16.22,28.39,20.22,37.3,33.86s31.61,42.16,37,79.74,1.59,34.75-2.2,44.8-2.39,1.54.14,4,16.34,23.59,19.69,29.36,22.92,30.84,33.39,46.22,15.17,27.49,13.87,33.7S805.34,412.52,798,414.8s-20.32,3.63-21.69,4.55S770.2,422,770.66,426s2.57,15,3.73,18.34,8,11.62,7.85,14.92-.4,8.23-4.85,11.32-9.53,5.8-9.59,7.12.45,4.31,3.61,7.11,5.67,5.56,6.53,8.25-.55,4.59-3,7.11-11.75,10.65-13.31,15.53-.23,18.15,4,26.94,4.47,23.33,2.58,28.19-5.75,16.23-20.25,22.45c-10.11,4.34-15.78,6.49-21.51,7a35.36,35.36,0,0,1-7.89-.19c-34.86-3.85-63.9-7.05-81.3,6.23-18.44,14.08-20.63,44.23-18.42,61.19a73.91,73.91,0,0,0,3.62,15.06c-14.26-24.19-31.07-61.37-29.13-106.06,1.81-41.81,18.5-55.09,49.28-138.19,27.12-73.22,33.82-115.5,35.68-127.42,6.27-40.27,6.15-78.51,3.84-96C674.45,156.91,613.29,106.8,602.42,98.09Z" transform="translate(-305.54 -98.09)"/><path class="cls-2" d="M535.31,430.24a14.21,14.21,0,1,1-13.7,14.21A14,14,0,0,1,535.31,430.24Z" transform="translate(-305.54 -98.09)"/><path class="cls-3" d="M640,310.47a7,7,0,1,1-6.73,7A6.85,6.85,0,0,1,640,310.47Z" transform="translate(-305.54 -98.09)"/><path class="cls-3" d="M592.32,345.37a7.51,7.51,0,1,1-7.23,7.5A7.37,7.37,0,0,1,592.32,345.37Z" transform="translate(-305.54 -98.09)"/><path class="cls-3" d="M512.38,217.11a7.51,7.51,0,1,1-7.23,7.5A7.36,7.36,0,0,1,512.38,217.11Z" transform="translate(-305.54 -98.09)"/><path class="cls-3" d="M584.83,369.2a5.4,5.4,0,1,1-5.2,5.39A5.3,5.3,0,0,1,584.83,369.2Z" transform="translate(-305.54 -98.09)"/><path class="cls-3" d="M559.84,373.67a6.46,6.46,0,1,1-6.22,6.46A6.35,6.35,0,0,1,559.84,373.67Z" transform="translate(-305.54 -98.09)"/><path class="cls-3" d="M576.2,270.7a5,5,0,1,1-4.82,5A4.91,4.91,0,0,1,576.2,270.7Z" transform="translate(-305.54 -98.09)"/><path class="cls-3" d="M534.27,195.38a5,5,0,1,1-4.82,5A4.91,4.91,0,0,1,534.27,195.38Z" transform="translate(-305.54 -98.09)"/><path class="cls-3" d="M475.21,243.42c8.15,0,14.77,6.87,14.77,15.34s-6.62,15.32-14.77,15.32-14.77-6.86-14.77-15.32S467.05,243.42,475.21,243.42Z" transform="translate(-305.54 -98.09)"/><ellipse class="cls-4" cx="229.81" cy="31.18" rx="6.09" ry="6.32"/><path class="cls-3" d="M512.38,126.77a6.32,6.32,0,1,1-6.09,6.32A6.2,6.2,0,0,1,512.38,126.77Z" transform="translate(-305.54 -98.09)"/><path class="cls-3" d="M429.28,152.71a7.38,7.38,0,1,1-7.11,7.37A7.24,7.24,0,0,1,429.28,152.71Z" transform="translate(-305.54 -98.09)"/><path class="cls-3" d="M405.42,193.27a7.11,7.11,0,1,1-6.85,7.11A7,7,0,0,1,405.42,193.27Z" transform="translate(-305.54 -98.09)"/><path class="cls-3" d="M405.55,224.61a8,8,0,1,1-7.74,8A7.89,7.89,0,0,1,405.55,224.61Z" transform="translate(-305.54 -98.09)"/><path class="cls-3" d="M606.78,214.6a7,7,0,1,1-6.72,7A6.86,6.86,0,0,1,606.78,214.6Z" transform="translate(-305.54 -98.09)"/><path class="cls-3" d="M555.69,242.39a7,7,0,1,1-6.72,7A6.85,6.85,0,0,1,555.69,242.39Z" transform="translate(-305.54 -98.09)"/><path class="cls-5" d="M589.91,321.55l20.82,13.78a10.41,10.41,0,0,1,5.69-1.68,11.2,11.2,0,1,1-10.78,11.19c0-.26,0-.52,0-.77l-21.73-14.39a19.74,19.74,0,0,1-12.68,4.62c-11.21,0-20.3-9.43-20.3-21.07s9.09-21.07,20.3-21.07a19.58,19.58,0,0,1,9.71,2.57L599.73,275a21.69,21.69,0,0,1-.65-25.89l-20.17-21.23a19.76,19.76,0,0,1-12.22,4.25c-11.21,0-20.3-9.44-20.3-21.07S555.48,190,566.69,190a19.84,19.84,0,0,1,14.17,6l29-6.19c0-.63-.08-1.26-.08-1.9,0-11.63,9.09-21.07,20.3-21.07s20.3,9.44,20.3,21.07-9.09,21.07-20.3,21.07a20.08,20.08,0,0,1-16.94-9.47l-27,5.76a21.86,21.86,0,0,1,.78,5.82,21.64,21.64,0,0,1-1.87,8.84l21.57,22.7a19.57,19.57,0,0,1,8.72-2.05c11.21,0,20.3,9.44,20.3,21.07s-9.09,21.07-20.3,21.07a19.5,19.5,0,0,1-7.71-1.58l-19.5,20.52a21.76,21.76,0,0,1,1.71,19.93Z" transform="translate(-305.54 -98.09)"/><path class="cls-3" d="M539.57,345.22l13.74,9.5a11,11,0,0,0-.58,3.55,10.41,10.41,0,1,0,10.41-10.8,10.19,10.19,0,0,0-7.21,3l-13.83-9.57a10.16,10.16,0,0,0,.36-2.66,9.27,9.27,0,1,0-9.27,9.61A9,9,0,0,0,539.57,345.22Z" transform="translate(-305.54 -98.09)"/><path class="cls-3" d="M521.92,305.5,515,312.07a9.45,9.45,0,0,0-6.27-2.39,10,10,0,1,0,9.65,10,10.25,10.25,0,0,0-.59-3.43l6.92-6.54a10.9,10.9,0,0,0,7.62,3.13,11.6,11.6,0,1,0-11.16-11.59A11.71,11.71,0,0,0,521.92,305.5Z" transform="translate(-305.54 -98.09)"/><path class="cls-3" d="M658,268.9l-7,15.77a8.56,8.56,0,0,0-3.32-.67,9,9,0,0,0-8.82,8.05L619.89,296a10.72,10.72,0,0,0-9.3-5.52,11.2,11.2,0,1,0,10.78,11.2c0-.29,0-.56,0-.84L639.55,297a8.89,8.89,0,0,0,8.09,5.4,9.06,9.06,0,0,0,8.88-9.22,9.45,9.45,0,0,0-1.64-5.34l7.35-16.55a10.06,10.06,0,0,0,2.92.42,11.2,11.2,0,1,0-10.79-11.19A11.35,11.35,0,0,0,658,268.9Z" transform="translate(-305.54 -98.09)"/><path class="cls-3" d="M578,144l13.12,6.62a10.52,10.52,0,0,0-.17,1.88,10,10,0,0,0,.43,2.91l-16,9.55a9.29,9.29,0,0,0-7.78-4.29,9.75,9.75,0,1,0,9.38,9.74c0-.2,0-.39,0-.58l17-10.16a9.16,9.16,0,0,0,6.34,2.57,9.75,9.75,0,0,0,0-19.48,9.24,9.24,0,0,0-7.07,3.34l-13.79-7c0-.37,0-.75,0-1.13a11.67,11.67,0,1,0-11.67,12.11A11.62,11.62,0,0,0,578,144Z" transform="translate(-305.54 -98.09)"/><path class="cls-3" d="M457.92,152.72l11.57,14.76a10.27,10.27,0,0,0-2.15,6.3,9.65,9.65,0,1,0,9.64-10,9.3,9.3,0,0,0-3.58.72l-11.81-15.07a10.27,10.27,0,0,0,1.69-5.66,9.65,9.65,0,1,0-9.64,10A9.27,9.27,0,0,0,457.92,152.72Z" transform="translate(-305.54 -98.09)"/><path class="cls-3" d="M390.51,219l22.95-1.17a11.9,11.9,0,0,0,23.68-2.06,12.52,12.52,0,0,0-5-10.06l5.13-9.45a10,10,0,0,0,1.74.15,10.81,10.81,0,0,0,0-21.6,10.17,10.17,0,0,0-7.6,3.43l-13.49-4a10.78,10.78,0,0,0,.15-1.81,10.41,10.41,0,1,0-10.41,10.8,10.27,10.27,0,0,0,8.33-4.32l13,3.84a11.19,11.19,0,0,0-.37,2.85,10.92,10.92,0,0,0,4.18,8.65l-5.11,9.4a11.38,11.38,0,0,0-2.49-.27,12,12,0,0,0-11.58,9.38L391,213.94a11.93,11.93,0,1,0-.51,5.08Z" transform="translate(-305.54 -98.09)"/><path class="cls-3" d="M374.26,248.28l6.8,5.23a12.69,12.69,0,0,0-.89,4.68,11.93,11.93,0,1,0,11.93-12.38,11.62,11.62,0,0,0-8.32,3.52l-5.27-4.05a7.27,7.27,0,0,0,1.16-3.95,6.85,6.85,0,1,0-6.85,7.11A6.23,6.23,0,0,0,374.26,248.28Z" transform="translate(-305.54 -98.09)"/><path class="cls-5" d="M472.42,190.77A20.32,20.32,0,0,1,484.81,195l19.3-19.07a21.68,21.68,0,0,1-1.37-15.06l-9.16-8.44a11.7,11.7,0,0,1-5.69,1.47,12.51,12.51,0,1,1,12.05-12.5,13,13,0,0,1-.34,3l8.14,7.51a19.9,19.9,0,0,1,14.54-6.37c11.22,0,20.31,9.43,20.31,21.07s-9.09,21.07-20.31,21.07a19.68,19.68,0,0,1-11.79-3.93l-19.34,19.1a22.34,22.34,0,0,1,2.21,9.72c0,12-9.38,21.72-20.94,21.72a20.24,20.24,0,0,1-9.77-2.5l-16.33,16.14a17.33,17.33,0,0,1,1,13.13l23.28,27.63a15.59,15.59,0,0,1,16,.48l17.68-18.61a21.46,21.46,0,0,1-3.64-12c0-11.63,9.08-21.06,20.3-21.06s20.3,9.43,20.3,21.06-9.09,21.07-20.3,21.07a19.54,19.54,0,0,1-9.25-2.31l-18.66,19.64a17.31,17.31,0,0,1,1.26,6.51c0,9.23-7.21,16.72-16.11,16.72s-16.12-7.49-16.12-16.72A17.18,17.18,0,0,1,463.8,296l-22.44-26.62a15.6,15.6,0,0,1-9.28,3.06c-8.91,0-16.12-7.49-16.12-16.72S423.17,239,432.08,239a15.56,15.56,0,0,1,7.21,1.77l16-15.79a22.14,22.14,0,0,1-3.77-12.44C451.49,200.5,460.86,190.77,472.42,190.77Z" transform="translate(-305.54 -98.09)"/><text class="cls-6" transform="translate(207.92 75.89)">JS</text><text class="cls-7" transform="matrix(0.72, -0.7, 0.7, 0.72, 157.5, 131.68)">HTML</text><text class="cls-8" transform="translate(201.84 167.32)">CSS</text><text class="cls-8" transform="translate(248.45 119.77)">PHP</text><text class="cls-6" transform="translate(310.76 97.91)">&lt;/&gt;</text><text class="cls-6" transform="translate(117.19 163.92)">{ }</text><text class="cls-6" transform="translate(164.83 213.64)">( )</text><text class="cls-9" transform="translate(180.25 47.75)">;</text><text class="cls-6" transform="translate(296.82 171.41)">SQL</text><text class="cls-6" transform="translate(250.15 224.18)">C++</text><text class="cls-10" transform="translate(305.37 253.16)">[ ]</text><path class="cls-11" d="M455.6,417.31a148.41,148.41,0,0,1-65.28-274.83,173.16,173.16,0,0,0,62,320l-1,14.35,60.58-32.75-55.28-41.06Z" transform="translate(-305.54 -98.09)"/><text class="cls-12" transform="translate(135.26 730.04)">ICC</text><text class="cls-13" transform="translate(111.12 761.88)">Informatika Coding Camp</text></svg>