<svg id="Layer_1" data-name="Layer 1" xmlns="http://www.w3.org/2000/svg" viewBox="0 0 501.97 770.59"><defs><style>.cls-1,.cls-9{fill:#fff;}.cls-10,.cls-11,.cls-2{fill:#faa31b;}.cls-2,.cls-3,.cls-9{fill-rule:evenodd;}.cls-3,.cls-4{fill:#1897d4;}.cls-5{font-size:19.21px;}.cls-5,.cls-6,.cls-7,.cls-8{fill:#13213c;}.cls-10,.cls-11,.cls-5,.cls-6,.cls-7,.cls-8{font-family:Impact;}.cls-6{font-size:17.07px;}.cls-7{font-size:20.46px;}.cls-8{font-size:14.84px;}.cls-10{font-size:161.31px;}.cls-11{font-size:26.19px;}</style></defs><title>logo ver putih</title><path class="cls-1" d="M590.64,165.72c32.34,9.09,55.49,17.28,58.44,19,.56.31,7.84,4.65,7.87,4.67h0c2,1.3,4.23,2.86,6.95,5,20.63,15.94,27.9,19.86,36.65,33.27S731.63,269,737,305.94s1.57,34.15-2.16,44-2.35,1.51.13,3.9S751,377,754.28,382.71s22.52,30.3,32.81,45.4,14.9,27,13.63,33.11-10.72,13.43-18,15.67-20,3.56-21.3,4.47-6,2.63-5.51,6.54,2.52,14.72,3.66,18,7.87,11.42,7.71,14.66-.39,8.09-4.76,11.12-9.36,5.7-9.43,7,.44,4.24,3.55,7,5.57,5.47,6.42,8.1-.55,4.52-2.94,7S748.61,571.24,747.07,576s-.22,17.84,3.9,26.47,4.39,22.93,2.53,27.7-5.65,15.95-19.89,22.06c-9.93,4.26-15.5,6.37-21.13,6.89a35.41,35.41,0,0,1-7.75-.19c-34.25-3.78-62.78-6.93-79.88,6.12-18.12,13.83-20.27,43.45-18.1,60.12a72.15,72.15,0,0,0,3.56,14.8c-14-23.77-30.53-60.3-28.62-104.21,1.77-41.08,18.17-54.13,48.42-135.78,26.64-71.93,33.23-113.48,35-125.18,6.16-39.57,6.05-77.14,3.77-94.36C661.41,223.51,601.32,174.28,590.64,165.72Z" transform="translate(-298.95 -165.72)"/><path class="cls-2" d="M524.7,492.06a14,14,0,1,1-13.46,14A13.71,13.71,0,0,1,524.7,492.06Z" transform="translate(-298.95 -165.72)"/><path class="cls-3" d="M627.58,374.38a6.86,6.86,0,1,1-6.61,6.86A6.74,6.74,0,0,1,627.58,374.38Z" transform="translate(-298.95 -165.72)"/><path class="cls-3" d="M580.71,408.67a7.38,7.38,0,1,1-7.1,7.37A7.23,7.23,0,0,1,580.71,408.67Z" transform="translate(-298.95 -165.72)"/><path class="cls-3" d="M502.17,282.65a7.38,7.38,0,1,1-7.1,7.38A7.24,7.24,0,0,1,502.17,282.65Z" transform="translate(-298.95 -165.72)"/><path class="cls-3" d="M573.36,432.08a5.31,5.31,0,1,1-5.11,5.31A5.22,5.22,0,0,1,573.36,432.08Z" transform="translate(-298.95 -165.72)"/><path class="cls-3" d="M548.8,436.48a6.34,6.34,0,1,1-6.11,6.34A6.23,6.23,0,0,1,548.8,436.48Z" transform="translate(-298.95 -165.72)"/><path class="cls-3" d="M564.88,335.31a4.92,4.92,0,1,1-4.74,4.91A4.83,4.83,0,0,1,564.88,335.31Z" transform="translate(-298.95 -165.72)"/><path class="cls-3" d="M523.68,261.3a4.92,4.92,0,1,1-4.74,4.92A4.83,4.83,0,0,1,523.68,261.3Z" transform="translate(-298.95 -165.72)"/><path class="cls-3" d="M465.65,308.51c8,0,14.51,6.74,14.51,15.07a14.52,14.52,0,1,1-29,0C451.14,315.25,457.63,308.51,465.65,308.51Z" transform="translate(-298.95 -165.72)"/><ellipse class="cls-4" cx="225.79" cy="30.63" rx="5.98" ry="6.21"/><path class="cls-3" d="M502.18,193.9a6.21,6.21,0,1,1-6,6.21A6.1,6.1,0,0,1,502.18,193.9Z" transform="translate(-298.95 -165.72)"/><path class="cls-3" d="M420.53,219.38a7.25,7.25,0,1,1-7,7.25A7.12,7.12,0,0,1,420.53,219.38Z" transform="translate(-298.95 -165.72)"/><path class="cls-3" d="M397.09,259.23a7,7,0,1,1-6.74,7A6.87,6.87,0,0,1,397.09,259.23Z" transform="translate(-298.95 -165.72)"/><path class="cls-3" d="M397.21,290a7.9,7.9,0,1,1-7.6,7.89A7.75,7.75,0,0,1,397.21,290Z" transform="translate(-298.95 -165.72)"/><path class="cls-3" d="M594.92,280.19a6.87,6.87,0,1,1-6.6,6.86A6.74,6.74,0,0,1,594.92,280.19Z" transform="translate(-298.95 -165.72)"/><path class="cls-3" d="M544.73,307.49a6.86,6.86,0,1,1-6.61,6.86A6.73,6.73,0,0,1,544.73,307.49Z" transform="translate(-298.95 -165.72)"/><path class="cls-2" d="M578.35,385.27l20.45,13.54a10.25,10.25,0,0,1,5.6-1.65,11,11,0,1,1-10.6,11q0-.39,0-.75l-21.35-14.14A19.41,19.41,0,0,1,560,397.8c-11,0-19.94-9.27-19.94-20.7S549,356.4,560,356.4a19.34,19.34,0,0,1,9.54,2.51L588,339.52a21.29,21.29,0,0,1-.63-25.44l-19.82-20.85a19.37,19.37,0,0,1-12,4.17c-11,0-19.95-9.27-19.95-20.7s8.93-20.7,19.95-20.7a19.52,19.52,0,0,1,13.92,5.88L598,255.79c-.06-.61-.08-1.23-.08-1.86,0-11.43,8.93-20.7,19.94-20.7s19.95,9.27,19.95,20.7-8.93,20.7-19.95,20.7a19.77,19.77,0,0,1-16.65-9.3L574.71,271a21.58,21.58,0,0,1,.77,5.72,21.24,21.24,0,0,1-1.84,8.69l21.19,22.3a19.17,19.17,0,0,1,8.57-2c11,0,20,9.27,20,20.7s-8.93,20.7-20,20.7a19.24,19.24,0,0,1-7.58-1.55l-19.16,20.16a21.44,21.44,0,0,1,1.69,19.58Z" transform="translate(-298.95 -165.72)"/><path class="cls-3" d="M528.89,408.53l13.49,9.33a10.86,10.86,0,0,0-.56,3.49A10.23,10.23,0,1,0,552,410.74a10,10,0,0,0-7.08,2.95l-13.59-9.4a10.21,10.21,0,0,0,.35-2.61,9.11,9.11,0,1,0-9.1,9.44A8.89,8.89,0,0,0,528.89,408.53Z" transform="translate(-298.95 -165.72)"/><path class="cls-3" d="M511.54,369.5,504.71,376a9.21,9.21,0,0,0-6.15-2.36,9.84,9.84,0,1,0,9.47,9.84,10.2,10.2,0,0,0-.57-3.38l6.79-6.42a10.75,10.75,0,0,0,7.5,3.07,11.39,11.39,0,1,0-11-11.39A11.75,11.75,0,0,0,511.54,369.5Z" transform="translate(-298.95 -165.72)"/><path class="cls-3" d="M645.2,333.55,638.33,349a8.49,8.49,0,0,0-3.27-.66,8.87,8.87,0,0,0-8.66,7.92l-18.6,3.85a10.54,10.54,0,0,0-9.14-5.42,11,11,0,1,0,10.6,11q0-.4,0-.81l17.89-3.71a8.72,8.72,0,0,0,7.94,5.3,8.9,8.9,0,0,0,8.73-9.06,9.28,9.28,0,0,0-1.61-5.24l7.22-16.26a10,10,0,0,0,2.86.41,11,11,0,1,0-10.59-11A11.2,11.2,0,0,0,645.2,333.55Z" transform="translate(-298.95 -165.72)"/><path class="cls-3" d="M566.62,210.78l12.9,6.5a10.18,10.18,0,0,0-.17,1.85,9.7,9.7,0,0,0,.42,2.86l-15.72,9.38a9.11,9.11,0,0,0-7.64-4.22,9.58,9.58,0,1,0,9.21,9.57c0-.19,0-.38,0-.57l16.72-10a9,9,0,0,0,6.24,2.52,9.57,9.57,0,0,0,0-19.13,9.07,9.07,0,0,0-7,3.28L568.07,206c0-.36,0-.73,0-1.11a11.47,11.47,0,1,0-11.46,11.9A11.4,11.4,0,0,0,566.62,210.78Z" transform="translate(-298.95 -165.72)"/><path class="cls-3" d="M448.66,219.4,460,233.9a10,10,0,0,0-2.11,6.18,9.48,9.48,0,1,0,9.47-9.83,9,9,0,0,0-3.52.71l-11.6-14.81a10.08,10.08,0,0,0,1.66-5.56,9.48,9.48,0,1,0-9.47,9.83A9.17,9.17,0,0,0,448.66,219.4Z" transform="translate(-298.95 -165.72)"/><path class="cls-3" d="M382.43,284.53,405,283.38a11.69,11.69,0,0,0,23.27-2,12.28,12.28,0,0,0-4.88-9.88l5.05-9.29a9.52,9.52,0,0,0,1.7.14,10.61,10.61,0,0,0,0-21.21,10,10,0,0,0-7.47,3.37l-13.24-3.92a11.56,11.56,0,0,0,.14-1.78,10.23,10.23,0,1,0-10.22,10.61,10.1,10.1,0,0,0,8.18-4.25l12.75,3.78a10.89,10.89,0,0,0,3.75,11.3l-5,9.23a11.59,11.59,0,0,0-13.83,9l-22.23,1.13a11.38,11.38,0,1,0-11.28,13.06A11.39,11.39,0,0,0,382.43,284.53Z" transform="translate(-298.95 -165.72)"/><path class="cls-3" d="M366.47,313.28l6.67,5.14a12.71,12.71,0,0,0-.86,4.6A11.72,11.72,0,1,0,384,310.85a11.44,11.44,0,0,0-8.17,3.46l-5.17-4a7.17,7.17,0,0,0,1.13-3.87,6.73,6.73,0,1,0-6.73,7A6.06,6.06,0,0,0,366.47,313.28Z" transform="translate(-298.95 -165.72)"/><path class="cls-2" d="M462.91,256.78a20,20,0,0,1,12.17,4.13l19-18.73a21.45,21.45,0,0,1-1.34-14.8l-9-8.29a11.54,11.54,0,0,1-5.59,1.45A12.29,12.29,0,1,1,490,208.26a13.13,13.13,0,0,1-.33,2.89l8,7.38a19.56,19.56,0,0,1,14.29-6.26c11,0,20,9.27,20,20.7s-8.93,20.7-20,20.7a19.33,19.33,0,0,1-11.59-3.86l-19,18.77a22,22,0,0,1,2.16,9.54c0,11.79-9.21,21.35-20.57,21.35a19.91,19.91,0,0,1-9.6-2.46l-16.05,15.86a16.88,16.88,0,0,1,1.84,7.69,17.21,17.21,0,0,1-.81,5.21l22.87,27.14a15.35,15.35,0,0,1,15.76.47l17.37-18.27a21.12,21.12,0,0,1-3.58-11.83c0-11.43,8.93-20.7,20-20.7s19.94,9.27,19.94,20.7S521.67,344,510.66,344a19.25,19.25,0,0,1-9.09-2.27L483.23,361a16.74,16.74,0,0,1,1.25,6.4c0,9.07-7.09,16.43-15.83,16.43s-15.84-7.36-15.84-16.43a16.88,16.88,0,0,1,1.63-7.26L432.4,334a15.39,15.39,0,0,1-9.13,3c-8.74,0-15.83-7.36-15.83-16.43s7.09-16.43,15.83-16.43a15.3,15.3,0,0,1,7.09,1.74l15.69-15.52a21.77,21.77,0,0,1-3.71-12.23C442.34,266.33,451.56,256.78,462.91,256.78Z" transform="translate(-298.95 -165.72)"/><text class="cls-5" transform="translate(204.29 74.56)">JS</text><text class="cls-6" transform="matrix(0.72, -0.7, 0.7, 0.72, 154.79, 129.4)">HTML</text><text class="cls-6" transform="translate(198.31 164.39)">CSS</text><text class="cls-6" transform="translate(244.1 117.68)">PHP</text><text class="cls-5" transform="translate(305.32 96.19)">&lt;/&gt;</text><text class="cls-5" transform="translate(115.14 161.05)">{ }</text><text class="cls-5" transform="translate(161.94 209.9)">( )</text><text class="cls-7" transform="translate(177.09 46.91)">;</text><text class="cls-5" transform="translate(291.63 168.41)">SQL</text><text class="cls-5" transform="translate(245.78 220.26)">C++</text><text class="cls-8" transform="translate(300.03 248.73)">[ ]</text><path class="cls-9" d="M446.38,479.36a145.82,145.82,0,0,1-64.13-270A170.13,170.13,0,0,0,443.2,523.77l-1,14.11L501.7,505.7l-54.31-40.34Z" transform="translate(-298.95 -165.72)"/><text class="cls-10" transform="translate(132.9 717.26)">ICC</text><text class="cls-11" transform="translate(111.53 748.56)">Informatika Coding Camp</text></svg>